<svg width="200" height="200" viewBox="0 0 200 200" fill="none" xmlns="http://www.w3.org/2000/svg">
<circle cx="100" cy="100" r="100" fill="#C4C4C4"/>
<path d="M91.4383 120.042C91.4383 112.11 92.1482 106.407 93.568 102.931C94.9878 99.4545 97.9987 95.6603 102.601 91.5478C106.615 88.0228 109.675 84.9629 111.78 82.3681C113.886 79.7733 114.938 76.8113 114.938 73.4821C114.938 69.4675 113.592 66.1384 110.899 63.4946C108.207 60.8509 104.461 59.529 99.6633 59.529C94.6695 59.529 90.8753 61.0467 88.2805 64.0821C85.6857 67.1175 83.8497 70.2019 82.7727 73.3353L67.6445 66.8728C69.7008 60.6061 73.4706 55.1717 78.9539 50.5696C84.4372 45.9675 91.3404 43.6665 99.6633 43.6665C109.945 43.6665 117.851 46.5306 123.384 52.2587C128.916 57.9868 131.682 64.8655 131.682 72.8946C131.682 77.7905 130.629 81.9764 128.524 85.4524C126.419 88.9285 123.114 92.8696 118.61 97.2759C113.812 101.878 110.899 105.378 109.871 107.777C108.843 110.176 108.329 114.264 108.329 120.042H91.4383ZM99.6633 155.291C96.432 155.291 93.6659 154.141 91.3648 151.84C89.0638 149.539 87.9133 146.773 87.9133 143.541C87.9133 140.31 89.0638 137.544 91.3648 135.243C93.6659 132.942 96.432 131.792 99.6633 131.792C102.895 131.792 105.661 132.942 107.962 135.243C110.263 137.544 111.413 140.31 111.413 143.541C111.413 146.773 110.263 149.539 107.962 151.84C105.661 154.141 102.895 155.291 99.6633 155.291Z" fill="white"/>
</svg>
