<?xml version="1.0" encoding="UTF-8"?>
<svg id="_레이어_2" data-name="레이어 2" xmlns="http://www.w3.org/2000/svg" viewBox="0 0 2568.36 775.56">
  <defs>
    <style>
      .cls-1 {
        fill: #1368e8;
        stroke: #1368e8;
        stroke-linecap: round;
        stroke-linejoin: round;
        stroke-width: 50px;
      }

      .cls-2 {
        fill: #fff;
      }
    </style>
  </defs>
  <g id="_레이어_1-2" data-name="레이어 1">
    <g>
      <g>
        <polygon class="cls-1" points="25 25 25 547.47 387.33 750.56 749.66 547.47 749.66 25 25 25"/>
        <path class="cls-2" d="m652.03,362.13c-.01-.5-.04-1-.06-1.5-.05-1.4-.11-2.8-.19-4.18-.03-.49-.07-.98-.1-1.47-.09-1.41-.19-2.8-.32-4.19-.03-.39-.07-.77-.11-1.16-.14-1.52-.31-3.03-.49-4.52-.03-.22-.05-.44-.08-.65-2.4-19.17-7.78-36.05-15.78-50.85l-31.35-166.17-66.56,92.38c-40.74-13.41-89.73-19.11-142.65-19.53-1.18-.01-2.36-.02-3.54-.02-.92,0-1.84-.02-2.76-.02-.24,0-.48,0-.72,0-.24,0-.48,0-.72,0-.92,0-1.84.01-2.76.02-1.18,0-2.36.01-3.54.02-52.92.42-101.91,6.12-142.65,19.53l-66.56-92.38-31.35,166.17c-8,14.79-13.38,31.68-15.78,50.85-.03.22-.06.44-.08.65-.18,1.49-.34,3-.49,4.52-.04.39-.08.77-.11,1.16-.12,1.38-.22,2.78-.32,4.19-.03.49-.07.98-.1,1.47-.08,1.38-.14,2.78-.19,4.18-.02.5-.05,1-.06,1.5-.05,1.89-.08,3.79-.08,5.72,0,128.36,118.55,159.59,264.78,159.59s264.78-31.24,264.78-159.59c0-1.93-.03-3.84-.08-5.72Z"/>
      </g>
      <g>
        <path d="m1258.36,150.8c43.78,23.33,70.57,64.2,80.37,122.63h-59.94c-7.15-32.66-21.95-56.45-44.4-71.36-22.45-14.91-50.75-22.37-84.92-22.37-40.53,0-74.65,15.52-102.36,46.56-27.71,31.04-41.57,77.29-41.57,138.75,0,53.15,11.43,96.41,34.29,129.78,22.86,33.37,60.13,50.06,111.83,50.06,39.56,0,72.31-11.72,98.26-35.15,25.94-23.43,39.22-61.31,39.83-113.65h-139.97v-50.21h196.26v239.17h-38.95l-14.61-57.51c-20.16,22.52-38.02,38.14-53.58,46.86-26.14,15.01-59.37,22.52-99.68,22.52-52.09,0-96.89-17.14-134.4-51.42-40.91-43-61.36-102.04-61.36-177.09s19.99-134.39,59.98-178.62c37.99-42.19,87.17-63.29,147.56-63.29,41.38,0,77.17,8.12,107.36,24.34Z"/>
        <path d="m1438.24,138.02h55.68v62.07h-55.68v-62.07Zm0,122.63h55.68v324.37h-55.68v-324.37Z"/>
        <path d="m1587.64,168.15h55.38v90.98h52.03v44.73h-52.03v212.7c0,11.36,3.85,18.97,11.56,22.82,4.26,2.23,11.36,3.35,21.3,3.35,2.63,0,5.48-.07,8.52-.2s6.59-.48,10.65-1.02v43.51c-6.29,1.83-12.83,3.14-19.63,3.96-6.8.81-14.15,1.22-22.06,1.22-25.56,0-42.9-6.54-52.03-19.63-9.13-13.08-13.69-30.07-13.69-50.97v-215.74h-44.12v-44.73h44.12v-90.98Z"/>
        <path d="m1755.61,138.02h193.27c52.68,0,90.15,15.62,112.41,46.86,13.07,18.46,19.6,39.76,19.6,63.9,0,28.2-8.02,51.32-24.04,69.38-8.32,9.54-20.29,18.26-35.91,26.17,22.92,8.72,40.06,18.56,51.42,29.52,20.08,19.47,30.12,46.36,30.12,80.64,0,28.81-9.09,54.88-27.25,78.2-27.15,34.89-70.32,52.34-129.51,52.34h-190.13V138.02Zm170.64,188.96c25.83,0,45.91-3.55,60.26-10.65,22.55-11.15,33.82-31.24,33.82-60.25s-11.99-48.89-35.97-59.03c-13.53-5.68-33.62-8.52-60.27-8.52h-109.15v138.45h111.31Zm20.47,206.31c37.47,0,64.2-10.75,80.17-32.25,10.03-13.59,15.05-30.02,15.05-49.29,0-32.45-14.64-54.57-43.93-66.33-15.57-6.29-36.14-9.43-61.74-9.43h-121.33v157.32h131.77Z"/>
        <path d="m2340.15,387.79c12.58-1.62,21-6.88,25.26-15.79,2.43-4.89,3.65-11.91,3.65-21.08,0-18.73-6.63-32.33-19.89-40.78-13.26-8.45-32.24-12.68-56.93-12.68-28.55,0-48.8,7.75-60.74,23.24-6.68,8.57-11.03,21.31-13.06,38.23h-51.12c1.01-40.28,14.03-68.3,39.05-84.07,25.02-15.77,54.05-23.65,87.07-23.65,38.29,0,69.4,7.3,93.31,21.91,23.71,14.61,35.56,37.33,35.56,68.17v187.75c0,5.68,1.16,10.25,3.5,13.69,2.33,3.44,7.25,5.16,14.76,5.16,2.43,0,5.17-.15,8.22-.46s6.29-.76,9.74-1.36v40.47c-8.52,2.43-15.01,3.96-19.47,4.56-4.46.61-10.55.91-18.26.91-18.87,0-32.56-6.69-41.08-20.08-4.46-7.1-7.61-17.14-9.43-30.12-11.16,14.61-27.19,27.28-48.08,38.03-20.9,10.74-43.92,16.12-69.07,16.12-30.23,0-54.92-9.17-74.09-27.51-19.17-18.33-28.76-41.28-28.76-68.83,0-30.19,9.43-53.59,28.3-70.2,18.87-16.61,43.61-26.85,74.25-30.7l87.34-10.94Zm-115.33,147.96c11.56,9.11,25.26,13.66,41.08,13.66,19.27,0,37.93-4.45,55.99-13.36,30.43-14.79,45.64-38.99,45.64-72.61v-44.05c-6.68,4.27-15.29,7.83-25.81,10.68-10.53,2.85-20.85,4.88-30.98,6.1l-33.1,4.26c-19.84,2.63-34.76,6.78-44.76,12.45-16.94,9.51-25.41,24.69-25.41,45.54,0,15.78,5.78,28.23,17.34,37.34Z"/>
        <path d="m2513.58,138.02h54.77v447h-54.77V138.02Z"/>
      </g>
    </g>
  </g>
</svg>