<?xml version="1.0" encoding="UTF-8"?>
<svg id="Layer_2" data-name="Layer 2" xmlns="http://www.w3.org/2000/svg" viewBox="0 0 1828.2 775.56" width="800" height="400">
  <defs>
    <style>
      .cls-1 {
        fill: #1368e8;
        stroke: #1368e8;
        stroke-linecap: round;
        stroke-linejoin: round;
        stroke-width: 50px;
      }

      .cls-2, .cls-3 {
        stroke-width: 0px;
      }

      .cls-3 {
        fill: #fff;
      }
    </style>
  </defs>
  <g id="_레이어_1" data-name="레이어 1">
    <g>
      <g>
        <polygon class="cls-1" points="25 25 25 547.47 387.33 750.56 749.66 547.47 749.66 25 25 25"/>
        <path class="cls-3" d="M652.03,362.13c-.01-.5-.04-1-.06-1.5-.05-1.4-.11-2.8-.19-4.18-.03-.49-.07-.98-.1-1.47-.09-1.41-.19-2.8-.32-4.19-.03-.39-.07-.77-.11-1.16-.14-1.52-.31-3.03-.49-4.52-.03-.22-.05-.44-.08-.65-2.4-19.17-7.78-36.05-15.78-50.85l-31.35-166.17-66.56,92.38c-40.74-13.41-89.73-19.11-142.65-19.53-1.18-.01-2.36-.02-3.54-.02-.92,0-1.84-.02-2.76-.02-.24,0-.48,0-.72,0-.24,0-.48,0-.72,0-.92,0-1.84.01-2.76.02-1.18,0-2.36.01-3.54.02-52.92.42-101.91,6.12-142.65,19.53l-66.56-92.38-31.35,166.17c-8,14.79-13.38,31.68-15.78,50.85-.03.22-.06.44-.08.65-.18,1.49-.34,3-.49,4.52-.04.39-.08.77-.11,1.16-.12,1.38-.22,2.78-.32,4.19-.03.49-.07.98-.1,1.47-.08,1.38-.14,2.78-.19,4.18-.02.5-.05,1-.06,1.5-.05,1.89-.08,3.79-.08,5.72,0,128.36,118.55,159.59,264.78,159.59s264.78-31.24,264.78-159.59c0-1.93-.03-3.84-.08-5.72Z"/>
      </g>
      <g>
        <path class="cls-2" d="M1139.3,276.89c23.02,12.27,37.11,33.76,42.27,64.49h-31.52c-3.76-17.17-11.54-29.68-23.35-37.52-11.81-7.84-26.69-11.76-44.66-11.76-21.31,0-39.26,8.16-53.83,24.48-14.57,16.32-21.86,40.64-21.86,72.97,0,27.95,6.01,50.7,18.03,68.25,12.02,17.55,31.62,26.32,58.81,26.32,20.8,0,38.03-6.16,51.67-18.48,13.64-12.32,20.62-32.24,20.94-59.77h-73.61v-26.4h103.21v125.77h-20.48l-7.68-30.24c-10.6,11.84-19.99,20.06-28.18,24.64-13.75,7.89-31.22,11.84-52.42,11.84-27.39,0-50.95-9.01-70.68-27.04-21.51-22.61-32.27-53.66-32.27-93.13s10.51-70.67,31.54-93.93c19.98-22.19,45.84-33.28,77.6-33.28,21.76,0,40.58,4.27,56.46,12.8Z"/>
        <path class="cls-2" d="M1233.9,270.17h29.28v32.64h-29.28v-32.64ZM1233.9,334.65h29.28v170.58h-29.28v-170.58Z"/>
        <path class="cls-2" d="M1312.46,286.01h29.12v47.84h27.36v23.52h-27.36v111.85c0,5.98,2.03,9.98,6.08,12,2.24,1.18,5.97,1.76,11.2,1.76,1.39,0,2.88-.04,4.48-.1s3.47-.25,5.6-.54v22.88c-3.31.96-6.75,1.65-10.32,2.08-3.58.43-7.44.64-11.6.64-13.44,0-22.56-3.44-27.36-10.32-4.8-6.88-7.2-15.81-7.2-26.8v-113.45h-23.2v-23.52h23.2v-47.84Z"/>
        <path class="cls-2" d="M1400.79,270.17h101.64c27.7,0,47.41,8.22,59.11,24.64,6.87,9.71,10.31,20.91,10.31,33.6,0,14.83-4.22,26.99-12.64,36.48-4.38,5.02-10.67,9.6-18.88,13.76,12.05,4.59,21.07,9.76,27.04,15.52,10.56,10.24,15.84,24.38,15.84,42.4,0,15.15-4.78,28.86-14.33,41.12-14.28,18.35-36.98,27.52-68.1,27.52h-99.99v-235.06ZM1490.53,369.54c13.58,0,24.15-1.87,31.69-5.6,11.86-5.87,17.79-16.43,17.79-31.68s-6.31-25.71-18.92-31.04c-7.12-2.99-17.68-4.48-31.69-4.48h-57.4v72.81h58.53ZM1501.29,478.03c19.71,0,33.76-5.65,42.16-16.96,5.28-7.15,7.92-15.79,7.92-25.92,0-17.07-7.7-28.7-23.1-34.88-8.19-3.31-19.01-4.96-32.47-4.96h-63.8v82.73h69.3Z"/>
        <path class="cls-2" d="M1708.19,401.51c6.61-.85,11.04-3.62,13.28-8.31,1.28-2.57,1.92-6.26,1.92-11.08,0-9.85-3.49-17-10.46-21.44-6.97-4.44-16.95-6.67-29.94-6.67-15.01,0-25.66,4.08-31.94,12.22-3.51,4.51-5.8,11.21-6.87,20.1h-26.88c.53-21.18,7.38-35.92,20.54-44.21,13.16-8.29,28.42-12.44,45.79-12.44,20.14,0,36.49,3.84,49.07,11.52,12.47,7.68,18.7,19.63,18.7,35.85v98.74c0,2.99.61,5.39,1.84,7.2,1.23,1.81,3.81,2.72,7.76,2.72,1.28,0,2.72-.08,4.32-.24s3.31-.4,5.12-.72v21.28c-4.48,1.28-7.9,2.08-10.24,2.4-2.35.32-5.55.48-9.6.48-9.92,0-17.12-3.52-21.6-10.56-2.35-3.73-4-9.01-4.96-15.84-5.87,7.68-14.3,14.35-25.28,20-10.99,5.65-23.1,8.48-36.32,8.48-15.9,0-28.88-4.82-38.96-14.46-10.08-9.64-15.12-21.71-15.12-36.2,0-15.87,4.96-28.18,14.88-36.92,9.92-8.74,22.93-14.12,39.04-16.14l45.93-5.75ZM1647.54,479.32c6.08,4.79,13.28,7.18,21.6,7.18,10.13,0,19.95-2.34,29.44-7.03,16-7.78,24-20.5,24-38.18v-23.16c-3.52,2.25-8.04,4.12-13.57,5.62-5.54,1.5-10.97,2.57-16.29,3.21l-17.41,2.24c-10.43,1.39-18.28,3.57-23.54,6.55-8.91,5-13.36,12.99-13.36,23.95,0,8.3,3.04,14.85,9.12,19.64Z"/>
        <path class="cls-2" d="M1799.39,270.17h28.8v235.06h-28.8v-235.06Z"/>
      </g>
    </g>
  </g>
</svg>