<?xml version="1.0" encoding="UTF-8"?>
<svg id="_레이어_2" data-name="레이어 2" xmlns="http://www.w3.org/2000/svg" viewBox="0 0 549.67 866.87">
  <defs>
    <style>
      .cls-1 {
        fill: #1368e8;
      }

      .cls-2 {
        fill: #fff;
        stroke: #231815;
        stroke-linecap: round;
        stroke-linejoin: round;
        stroke-width: 10px;
      }
    </style>
  </defs>
  <g id="_레이어_1-2" data-name="레이어 1">
    <path class="cls-1" d="m533.46,810.17v-60.39h-11.88V198.46l-101.52-39.9V31.13L28.08,140.46v609.31h-11.88v60.39H0v56.7h238.03v-58.04c0-20.25,16.42-36.67,36.67-36.67h0c20.4,0,36.94,16.54,36.94,36.94v57.78h238.03v-56.7h-16.21Zm-422.86-77.2h-51.09v-51.09h51.09v51.09Zm0-92.68h-51.09v-51.09h51.09v51.09Zm0-92.68h-51.09v-51.09h51.09v51.09Zm0-92.68h-51.09v-51.09h51.09v51.09Zm0-92.68h-51.09v-51.09h51.09v51.09Zm0-92.68h-51.09v-51.09h51.09v51.09Zm90.01,463.4h-51.09v-51.09h51.09v51.09Zm0-92.68h-51.09v-51.09h51.09v51.09Zm0-92.68h-51.09v-51.09h51.09v51.09Zm0-92.68h-51.09v-51.09h51.09v51.09Zm0-92.68h-51.09v-51.09h51.09v51.09Zm0-92.68h-51.09v-51.09h51.09v51.09Zm90.01,463.4h-51.09v-51.09h51.09v51.09Zm0-92.68h-51.09v-51.09h51.09v51.09Zm0-92.68h-51.09v-51.09h51.09v51.09Zm0-92.68h-51.09v-51.09h51.09v51.09Zm0-92.68h-51.09v-51.09h51.09v51.09Zm0-92.68h-51.09v-51.09h51.09v51.09Zm90.01,463.4h-51.09v-51.09h51.09v51.09Zm0-92.68h-51.09v-51.09h51.09v51.09Zm0-92.68h-51.09v-51.09h51.09v51.09Zm0-92.68h-51.09v-51.09h51.09v51.09Zm0-92.68h-51.09v-51.09h51.09v51.09Zm0-92.68h-51.09v-51.09h51.09v51.09Zm107.85,463.4h-51.09v-51.09h51.09v51.09Zm0-92.68h-51.09v-51.09h51.09v51.09Zm0-92.68h-51.09v-51.09h51.09v51.09Zm0-92.68h-51.09v-51.09h51.09v51.09Zm0-92.68h-51.09v-51.09h51.09v51.09Zm0-92.68h-51.09v-51.09h51.09v51.09Z"/>
    <path class="cls-2" d="m343.92,108.42c0-.22-.02-.44-.03-.66-.02-.62-.05-1.23-.08-1.84-.01-.22-.03-.43-.04-.65-.04-.62-.09-1.24-.14-1.84-.02-.17-.03-.34-.05-.51-.06-.67-.13-1.33-.21-1.99-.01-.1-.02-.19-.04-.29-1.06-8.45-3.43-15.89-6.95-22.41l-13.81-73.22-29.33,40.71c-17.95-5.91-39.54-8.42-62.86-8.6-.52,0-1.04,0-1.56-.01-.41,0-.81,0-1.22,0-.11,0-.21,0-.32,0-.11,0-.21,0-.32,0-.41,0-.81,0-1.22,0-.52,0-1.04,0-1.56.01-23.32.18-44.91,2.7-62.86,8.6l-29.33-40.71-13.81,73.22c-3.53,6.52-5.9,13.96-6.95,22.41-.01.1-.02.19-.04.29-.08.66-.15,1.32-.21,1.99-.02.17-.03.34-.05.51-.05.61-.1,1.23-.14,1.84-.01.22-.03.43-.04.65-.03.61-.06,1.22-.08,1.84,0,.22-.02.44-.03.66-.02.83-.04,1.67-.04,2.52,0,56.56,52.24,70.33,116.68,70.33s116.68-13.77,116.68-70.33c0-.85-.01-1.69-.04-2.52Z"/>
  </g>
</svg>