<?xml version="1.0" encoding="UTF-8"?>
<svg id="_레이어_2" data-name="레이어 2" xmlns="http://www.w3.org/2000/svg" viewBox="0 0 838.79 746.95">
  <defs>
    <style>
      .cls-1 {
        fill: #009d1f;
      }
    </style>
  </defs>
  <g id="_레이어_1-2" data-name="레이어 1">
    <path class="cls-1" d="m419.39,43.16l-159.13,93.3v-70.29h23.59V0H125.03v66.17h23.59v135.74L0,289.06h97.98v457.89h385.96v-330h177.38v330h79.48v-457.89h97.98L419.39,43.16Zm-125.95,478.69c-62.71,0-113.55-13.4-113.55-68.44,0-.83.01-1.64.04-2.45,0-.22.02-.43.03-.64.02-.6.05-1.2.08-1.79.01-.21.03-.42.04-.63.04-.6.08-1.2.14-1.8.01-.17.03-.33.05-.5.06-.65.13-1.3.21-1.94.01-.09.02-.19.04-.28,1.03-8.22,3.34-15.46,6.77-21.8l13.44-71.26,28.54,39.61c17.47-5.75,38.48-8.2,61.17-8.37.5,0,1.01,0,1.52,0,.4,0,.79,0,1.18,0,.1,0,.21,0,.31,0,.1,0,.21,0,.31,0,.4,0,.79,0,1.18,0,.51,0,1.01,0,1.52,0,22.69.18,43.7,2.62,61.17,8.37l28.54-39.61,13.44,71.26c3.43,6.34,5.74,13.58,6.77,21.8.01.09.02.19.04.28.08.64.15,1.29.21,1.94.02.17.03.33.05.5.05.59.1,1.19.14,1.8.01.21.03.42.04.63.03.59.06,1.19.08,1.79,0,.22.02.43.03.64.02.81.04,1.63.04,2.45,0,55.04-50.84,68.44-113.55,68.44Z"/>
  </g>
</svg>