<?xml version="1.0" encoding="UTF-8"?>
<svg id="_레이어_2" data-name="레이어 2" xmlns="http://www.w3.org/2000/svg" viewBox="0 0 885.29 619.33">
  <defs>
    <style>
      .cls-1 {
        fill: #fff;
      }

      .cls-2 {
        fill: #ae67d3;
      }

      .cls-3 {
        fill: #231815;
      }
    </style>
  </defs>
  <g id="_레이어_1-2" data-name="레이어 1">
    <g>
      <polygon class="cls-2" points="460.67 140.81 460.78 93.45 285.01 5.76 284.99 5.82 284.86 5.76 65.02 116.37 63.27 163.65 286.81 52.49 460.67 140.81"/>
      <path class="cls-2" d="m853.59,515.98h-35.58v-167.09l-161.82-185.24h-179.52l-179.52-87.07v160.24h359.04v19.7h-359.04v60.03h359.04v19.7h-359.04v60.03h359.04v19.7h-359.04v60.03h359.04v19.7h-359.04v79.98h-17.27V73.69l-65.37,32.51v469.51h-15.84V114.07l-56.42,28.06v433.57h-15.15V148.84l-46.79,22.97v403.9h-15.29V180.54l-35.64,17.72v377.45H0v43.63h885.29v-43.63h-31.69v-59.72Zm-95.54,59.72h-38.29v-79.98h38.29v79.98Zm-217.99-42.16v42.16h-37.57v-42.16h37.57Zm-171.93,0h37.57v42.16h-37.57v-42.16Z"/>
    </g>
    <g>
      <g>
        <path class="cls-1" d="m521.28,193.23c-37.86,0-65.87-4.79-85.65-14.63-24.77-12.33-37.33-33.01-37.33-61.48,0-.91.01-1.8.04-2.69l.03-.7c.02-.67.05-1.32.09-1.97l.05-.68c.04-.68.09-1.34.15-2l.05-.52c.07-.74.15-1.46.23-2.16l.04-.33c1.08-8.64,3.51-16.62,7.22-23.69l13.83-73.29c.37-1.96,1.88-3.52,3.83-3.95.36-.08.73-.12,1.09-.12,1.59,0,3.1.76,4.06,2.08l27.55,38.23c16.83-5.02,37.52-7.66,61.57-7.85l3.49-.02,2.85.02c24.05.19,44.74,2.83,61.57,7.85l27.55-38.23c.95-1.32,2.47-2.08,4.06-2.08.36,0,.72.04,1.09.12,1.95.43,3.46,1.99,3.83,3.95l13.83,73.29c3.71,7.08,6.14,15.05,7.22,23.71l.04.31c.08.71.16,1.42.23,2.14l.05.57c.06.63.1,1.29.15,1.96l.05.69c.04.65.06,1.31.09,1.97l.03.7c.02.9.04,1.79.04,2.7,0,28.46-12.56,49.15-37.33,61.48-19.78,9.85-47.79,14.63-85.65,14.63Z"/>
        <path class="cls-3" d="m617.63,10l13.97,74.04c3.56,6.59,5.96,14.11,7.03,22.66.01.1.02.19.04.29.08.66.15,1.34.22,2.01.02.17.03.34.05.52.05.62.1,1.24.14,1.87.01.22.03.43.04.65.04.61.06,1.24.08,1.86,0,.22.02.44.03.67.02.84.04,1.69.04,2.55,0,57.19-52.82,71.11-117.98,71.11s-117.98-13.92-117.98-71.11c0-.86.01-1.71.04-2.55,0-.22.02-.45.03-.67.02-.62.05-1.25.08-1.86.01-.22.03-.44.04-.65.04-.63.09-1.25.14-1.87.02-.17.03-.34.05-.52.06-.68.14-1.35.22-2.01.01-.1.02-.19.04-.29,1.07-8.54,3.47-16.06,7.03-22.66l13.97-74.04,29.66,41.16c18.15-5.97,39.98-8.51,63.56-8.7.52,0,1.05,0,1.58-.01.41,0,.82,0,1.23,0,.11,0,.21,0,.32,0,.11,0,.21,0,.32,0,.41,0,.82,0,1.23,0,.53,0,1.05,0,1.58.01,23.58.19,45.41,2.73,63.56,8.7l29.66-41.16m0-10c-3.17,0-6.21,1.51-8.11,4.15l-25.5,35.39c-16.63-4.52-36.61-6.9-59.53-7.08-.47,0-.95,0-1.44,0h-.16s-.5,0-.5,0c-.26,0-.52,0-.78,0h-.23s-.1,0-.1,0h-.08s-.23,0-.23,0c-.26,0-.52,0-.78,0h-.49s-.18,0-.18,0c-.49,0-.97,0-1.46,0-22.91.18-42.89,2.56-59.51,7.08l-25.5-35.39c-1.9-2.64-4.94-4.15-8.11-4.15-.72,0-1.45.08-2.17.24-3.9.87-6.91,3.98-7.65,7.91l-13.69,72.57c-3.79,7.44-6.28,15.75-7.4,24.74v.09s-.04.23-.04.23c-.09.76-.17,1.52-.25,2.28l-.02.15-.04.42c-.06.7-.11,1.4-.16,2.1v.19c-.03.18-.04.35-.05.53-.04.69-.07,1.39-.09,2.09v.19c-.02.18-.02.37-.03.55-.03.98-.04,1.91-.04,2.83,0,30.52,13.49,52.71,40.1,65.95,20.49,10.2,49.23,15.16,87.88,15.16s67.39-4.96,87.88-15.16c26.61-13.25,40.1-35.44,40.1-65.95,0-.92-.01-1.85-.04-2.83,0-.19-.01-.37-.02-.55v-.2c-.03-.69-.06-1.38-.1-2.07-.01-.18-.02-.36-.04-.54v-.2c-.06-.7-.11-1.4-.17-2.09l-.04-.42-.02-.16c-.07-.76-.15-1.52-.24-2.27l-.03-.25v-.09c-1.13-8.98-3.62-17.29-7.41-24.73l-13.69-72.57c-.74-3.93-3.75-7.04-7.65-7.91-.72-.16-1.45-.24-2.17-.24h0Z"/>
      </g>
      <path class="cls-3" d="m651.33,75.88c-.36-1.43-.8-2.83-1.29-4.21l-113.47,28.89h-30.57l-113.47-28.89c-.49,1.37-.92,2.77-1.29,4.21-7.36,28.9,13.91,59.26,47.5,67.82,32.82,8.36,65.26-7.2,73.6-34.88h17.9c8.33,27.68,40.77,43.24,73.6,34.88,33.59-8.55,54.86-38.92,47.5-67.82Z"/>
    </g>
  </g>
</svg>